# xmcd CD database file
#
# Track frame offsets:
#	150
#	20597
#	40182
#	58790
#	73147
#	87970
#	99905
#	119477
#	137135
#	153937
#	182010
#
# Disc length: 2797 seconds
#
# Revision: 0
# Processed by: cddbd v1.5.1PL2 Copyright (c) Steve Scherf et al.
# Submitted via: CDex 1.51
#
DISCID=930aeb0b
DTITLE=サクラ大戦 - スーパー歌謡全集?　新西遊記
DYEAR=2004
DGENRE=Game
TTITLE0=ユンホォア〜レビュウ桜花乱舞〜
TTITLE1=わたしはいま...
TTITLE2=銀座行進曲
TTITLE3=永遠の命
TTITLE4=天竺どこだ!?
TTITLE5=ばかばかしくもありがたくも
TTITLE6=嘆きと悲しみ
TTITLE7=亡者の歌
TTITLE8=悪徳の花びら
TTITLE9=新西遊記〜命がめぐり世界が繋がる時〜
TTITLE10=新西遊記〜命がめぐり世界が繋がる時〜（オリジナル・カラオケ）
EXTD=YEAR: 2004
EXTT0=
EXTT1=
EXTT2=
EXTT3=
EXTT4=
EXTT5=
EXTT6=
EXTT7=
EXTT8=
EXTT9=
EXTT10=
PLAYORDER=
